HIERARCHY
ROOT Hips
{
	OFFSET -0.001795 -0.223333 0.028219
	CHANNELS 6 Xposition Yposition Zposition Zrotation Yrotation Xrotation 
	JOINT LeftUpLeg
	{
		OFFSET 0.069520 -0.091406 -0.006815
		CHANNELS 3 Zrotation Yrotation Xrotation
		JOINT LeftLeg
		{
			OFFSET 0.034277 -0.375199 -0.004496
			CHANNELS 3 Zrotation Yrotation Xrotation
			JOINT LeftFoot
			{
				OFFSET -0.013596 -0.397961 -0.043693
				CHANNELS 3 Zrotation Yrotation Xrotation
				JOINT LeftToe
				{
					OFFSET 0.026358 -0.055791 0.119288
					CHANNELS 3 Zrotation Yrotation Xrotation
					End Site
					{
						OFFSET 0.000000 0.000000 0.000000
					}
				}
			}
		}
	}
	JOINT RightUpLeg
	{
		OFFSET -0.067670 -0.090522 -0.004320
		CHANNELS 3 Zrotation Yrotation Xrotation
		JOINT RightLeg
		{
			OFFSET -0.038290 -0.382569 -0.008850
			CHANNELS 3 Zrotation Yrotation Xrotation
			JOINT RightFoot
			{
				OFFSET 0.015774 -0.398415 -0.042312
				CHANNELS 3 Zrotation Yrotation Xrotation
				JOINT RightToe
				{
					OFFSET -0.025372 -0.048144 0.123348
					CHANNELS 3 Zrotation Yrotation Xrotation
					End Site
					{
						OFFSET 0.000000 0.000000 0.000000
					}
				}
			}
		}
	}
	JOINT Spine
	{
		OFFSET -0.002533 0.108963 -0.026696
		CHANNELS 3 Zrotation Yrotation Xrotation
		JOINT Spine1
		{
			OFFSET 0.005487 0.135180 0.001092
			CHANNELS 3 Zrotation Yrotation Xrotation
			JOINT Spine2
			{
				OFFSET 0.001457 0.052922 0.025425
				CHANNELS 3 Zrotation Yrotation Xrotation
				JOINT Neck
				{
					OFFSET -0.002778 0.213870 -0.042857
					CHANNELS 3 Zrotation Yrotation Xrotation
					JOINT Head
					{
						OFFSET 0.005152 0.064970 0.051349
						CHANNELS 3 Zrotation Yrotation Xrotation
						End Site
						{
							OFFSET 0.000000 0.000000 0.000000
						}
					}
				}
				JOINT LeftShoulder
				{
					OFFSET 0.078845 0.121749 -0.034090
					CHANNELS 3 Zrotation Yrotation Xrotation
					JOINT LeftArm
					{
						OFFSET 0.090977 0.030469 -0.008868
						CHANNELS 3 Zrotation Yrotation Xrotation
						JOINT LeftForeArm
						{
							OFFSET 0.259612 -0.012772 -0.027456
							CHANNELS 3 Zrotation Yrotation Xrotation
							JOINT LeftHand
							{
								OFFSET 0.249234 0.008986 -0.001171
								CHANNELS 3 Zrotation Yrotation Xrotation
								End Site
								{
									OFFSET 0.000000 0.000000 0.000000
								}
							}
						}
					}
				}
				JOINT RightShoulder
				{
					OFFSET -0.081759 0.118833 -0.038615
					CHANNELS 3 Zrotation Yrotation Xrotation
					JOINT RightArm
					{
						OFFSET -0.096012 0.032551 -0.009143
						CHANNELS 3 Zrotation Yrotation Xrotation
						JOINT RightForeArm
						{
							OFFSET -0.253742 -0.013329 -0.021401
							CHANNELS 3 Zrotation Yrotation Xrotation
							JOINT RightHand
							{
								OFFSET -0.255298 0.007772 -0.005559
								CHANNELS 3 Zrotation Yrotation Xrotation
								End Site
								{
									OFFSET 0.000000 0.000000 0.000000
								}
							}
						}
					}
				}
			}
		}
	}
}
MOTION
Frames: 7
Frame Time: 0.050000
0.000000 0.959668 0.000000 -0.357280 -3.041893 0.517669 -0.506149 0.215818 2.148299 -0.885925 0.136470 -1.334175 1.514177 5.893062 8.562306 0.000000 0.000000 0.000000 -0.053430 -0.149868 1.560592 0.193371 -0.038931 -0.509823 0.004760 -3.549123 7.230843 0.000000 0.000000 0.000000 5.187483 -0.417115 4.320013 -3.975527 1.512500 -25.358940 -1.912507 3.783306 30.272679 6.431455 -3.212977 -17.218950 0.000000 0.000000 0.000000 3.418927 8.788851 -2.731367 -12.717572 -10.732902 -1.590408 8.792358 1.421487 0.107576 0.000000 0.000000 0.000000 -0.784379 -14.694962 -5.305706 16.355882 9.721715 -1.686736 -9.450170 2.319792 0.137022 0.000000 0.000000 0.000000 
0.000149 0.960015 0.000190 0.169542 -3.510693 -0.057492 -1.179054 0.355686 3.296271 -1.103460 0.188411 -2.488775 1.655615 6.261088 9.156590 0.000000 0.000000 0.000000 -0.108651 -0.200224 2.129898 -0.207804 -0.026837 -1.133606 0.220290 -2.927571 6.754164 0.000000 0.000000 0.000000 5.202538 -0.421377 4.498877 -4.371366 1.606041 -24.941073 -1.725695 4.325141 30.614232 5.984143 -2.910055 -16.791838 0.000000 0.000000 0.000000 4.911566 7.605448 -2.158212 -12.786683 -10.074319 -1.618285 6.116905 3.715471 0.103357 0.000000 0.000000 0.000000 -1.477813 -14.658570 -5.194682 17.835715 10.355482 -1.742080 -11.079029 0.744603 0.262253 0.000000 0.000000 0.000000 
0.000041 0.960503 0.000201 0.166274 -2.668077 0.542617 -0.708188 0.252955 2.459758 -1.289289 0.194547 -2.080271 1.652198 6.610117 10.257456 0.000000 0.000000 0.000000 -0.160531 -0.153791 1.647756 0.307917 -0.066438 -0.952773 -0.269601 -4.251917 7.616843 0.000000 0.000000 0.000000 4.854594 -0.317043 3.276225 -4.948163 1.760081 -24.361547 -1.198572 3.233311 30.663592 5.370441 -2.473536 -17.418607 0.000000 0.000000 0.000000 5.233328 6.622588 -1.852657 -13.749814 -9.248465 -1.761192 6.960826 4.604277 0.162096 0.000000 0.000000 0.000000 -1.694038 -14.061390 -4.930083 16.931974 10.012785 -1.716946 -9.055816 -0.059619 0.244236 0.000000 0.000000 0.000000 
0.000062 0.960548 0.000182 0.256551 -2.499447 0.227280 -0.993093 0.348624 3.303932 -1.660302 0.249554 -3.053676 1.788078 6.891770 10.382955 0.000000 0.000000 0.000000 -0.263112 -0.239843 2.600183 0.166933 -0.070737 -1.404471 -0.194480 -4.177020 7.862458 0.000000 0.000000 0.000000 5.203126 -0.369375 3.800156 -5.588354 1.913136 -24.562812 -1.484886 3.599678 30.547716 5.749736 -2.565436 -18.130234 0.000000 0.000000 0.000000 6.303609 6.477942 -1.665745 -13.583618 -10.955207 -1.643625 6.060103 5.774194 0.138010 0.000000 0.000000 0.000000 -1.599643 -14.612949 -5.160339 17.647015 10.082763 -1.747911 -8.946520 -0.561260 0.274337 0.000000 0.000000 0.000000 
0.000088 0.960510 0.000175 -0.131153 -2.254152 0.409612 -0.706836 0.341654 3.350094 -1.394942 0.237632 -3.605659 1.793990 7.000229 10.679223 0.000000 0.000000 0.000000 0.133772 -0.245916 2.443355 0.041496 -0.055642 -1.302064 0.128858 -3.537793 8.010835 0.000000 0.000000 0.000000 4.957326 -0.310348 3.166176 -4.982411 1.777462 -24.249478 -1.547386 3.504395 30.430151 5.674251 -2.450593 -18.408720 0.000000 0.000000 0.000000 6.540866 6.115339 -1.523853 -14.415661 -10.430936 -1.726501 6.852760 5.684466 0.178922 0.000000 0.000000 0.000000 -1.338977 -13.603150 -4.826187 17.566209 9.455665 -1.792457 -8.788423 -0.577854 0.269037 0.000000 0.000000 0.000000 
0.000110 0.960741 0.000203 -0.164646 -2.184468 0.150200 -0.816432 0.419986 4.082634 -1.357644 0.245492 -4.085224 1.688506 6.839754 10.706749 0.000000 0.000000 0.000000 0.649978 -0.323608 2.951820 -0.266619 -0.032530 -1.414615 0.159273 -3.455399 7.979857 0.000000 0.000000 0.000000 4.717448 -0.319959 3.438960 -4.844645 1.743875 -24.302008 -1.485391 3.336628 30.362428 5.490024 -2.305979 -18.631786 0.000000 0.000000 0.000000 6.524437 6.344457 -1.598593 -14.252794 -10.591741 -1.701993 6.673729 5.523670 0.166471 0.000000 0.000000 0.000000 -1.666772 -13.223962 -4.633325 18.096180 9.587387 -1.801517 -8.955808 -0.691713 0.279671 0.000000 0.000000 0.000000 
0.000154 0.961179 0.000154 -0.205090 -2.043288 -0.021604 -0.646068 0.413540 4.103277 -1.335681 0.240612 -3.962135 1.679969 6.861020 10.787091 0.000000 0.000000 0.000000 0.723550 -0.345520 3.125499 -0.125749 -0.044227 -1.393939 0.167863 -3.592538 8.396906 0.000000 0.000000 0.000000 4.546245 -0.328646 3.660208 -4.547659 1.678008 -24.249270 -1.515065 3.165069 30.232923 5.531334 -2.388538 -18.302186 0.000000 0.000000 0.000000 6.445166 6.328082 -1.601446 -14.413605 -10.727847 -1.699895 6.337199 5.150164 0.142243 0.000000 0.000000 0.000000 -1.829054 -12.725740 -4.424360 18.212599 9.467390 -1.810031 -8.569173 -0.623841 0.262224 0.000000 0.000000 0.000000 
